<?xml version="1.0" encoding="utf-8"?>
<!-- Generator: Adobe Illustrator 17.0.0, SVG Export Plug-In . SVG Version: 6.00 Build 0)  -->
<!DOCTYPE svg PUBLIC "-//W3C//DTD SVG 1.1//EN" "http://www.w3.org/Graphics/SVG/1.1/DTD/svg11.dtd">
<svg version="1.1" id="Camada_1" xmlns="http://www.w3.org/2000/svg" xmlns:xlink="http://www.w3.org/1999/xlink" x="0px" y="0px"
	 width="250px" height="250px" viewBox="0 0 250 250" enable-background="new 0 0 250 250" xml:space="preserve">
<path d="M140.152,125.023c-0.001,25.972-0.013,51.943,0.015,77.915c0.004,3.22-0.989,5.832-3.769,7.638
	c-3.218,2.09-6.752,1.648-9.699-1.253c-13.001-12.796-26.003-25.593-39.002-38.392c-2.406-2.369-4.735-4.821-7.243-7.076
	c-0.773-0.695-2.015-1.21-3.049-1.221c-9.284-0.093-18.569-0.044-27.854-0.06c-8.851-0.015-15.065-6.238-15.07-15.086
	c-0.008-15.128-0.008-30.257,0-45.385c0.005-8.211,6.44-14.724,14.684-14.77c9.349-0.053,18.7-0.041,28.049,0.017
	c1.481,0.009,2.526-0.437,3.583-1.476c15.417-15.155,30.888-30.255,46.311-45.404c2.228-2.189,4.808-2.892,7.648-1.91
	c2.957,1.022,4.801,3.241,5.284,6.415c0.126,0.828,0.106,1.682,0.106,2.525C140.153,73.34,140.152,99.182,140.152,125.023z"/>
<circle fill="none" stroke="#000000" stroke-width="20" stroke-miterlimit="10" cx="192.5" cy="125.5" r="35.5"/>
<line fill="none" stroke="#000000" stroke-width="20" stroke-miterlimit="10" x1="173" y1="107" x2="217.064" y2="151.116"/>
</svg>
