<?xml version="1.0" encoding="utf-8"?>
<!-- Generator: Adobe Illustrator 17.0.0, SVG Export Plug-In . SVG Version: 6.00 Build 0)  -->
<!DOCTYPE svg PUBLIC "-//W3C//DTD SVG 1.1//EN" "http://www.w3.org/Graphics/SVG/1.1/DTD/svg11.dtd">
<svg version="1.1" id="Camada_1" xmlns="http://www.w3.org/2000/svg" xmlns:xlink="http://www.w3.org/1999/xlink" x="0px" y="0px"
	 width="250px" height="250px" viewBox="0 0 250 250" enable-background="new 0 0 250 250" xml:space="preserve">
<path d="M163.164,93.315c-1.978-0.094-3.572-0.235-5.166-0.236c-25.985-0.014-51.969-0.021-77.954-0.005
	c-12.588,0.008-19.929,8.352-20.676,21.016c-0.589,9.979-0.619,13.729-9.503,23.906c-6.033,7.24-13.309,12.897-20.052,19.559
	c0-17.59-1.169-34.807,0.28-51.8c2.06-24.151,23.849-42.603,48.186-42.668c27.976-0.075,55.953-0.017,84.466-0.017"/>
<path d="M220.636,92.866c0,16.121,0.152,32.202-0.11,48.277c-0.064,3.912-1.147,7.911-2.347,11.683
	c-6.48,20.367-25.318,34.166-46.667,34.225c-26.151,0.072-52.302,0.017-78.453,0.017c-1.806,0-3.612,0-5.975,0
	c0,9.181,0,18.053,0,28.227c-16.164-14.865-31.368-28.848-46.955-43.183c15.565-14.322,30.712-28.259,46.641-42.916
	c0,9.672,0,18.489,0,27.614c2.214,0.105,3.825,0.248,5.437,0.248c25.818,0.014,51.636,0.017,77.454,0.007
	c12.946-0.005,20.121-8.92,20.881-20.146c1.733-12.851,4.458-19.101,9.392-24.564L220.636,92.866z"/>
<path d="M184,45.402c-24.116,0-43.667,19.936-43.667,44.528c0,24.592,19.55,44.528,43.667,44.528s43.667-19.936,43.667-44.528
	C227.667,65.338,208.116,45.402,184,45.402z M189.002,116.328h-6.841V70.61H182l-9.096,4.91l-1.368-5.393l11.43-6.117h6.036V116.328
	z"/>
</svg>
