<?xml version="1.0" encoding="utf-8"?>
<!-- Generator: Adobe Illustrator 17.0.0, SVG Export Plug-In . SVG Version: 6.00 Build 0)  -->
<!DOCTYPE svg PUBLIC "-//W3C//DTD SVG 1.1//EN" "http://www.w3.org/Graphics/SVG/1.1/DTD/svg11.dtd">
<svg version="1.1" id="Camada_1" xmlns="http://www.w3.org/2000/svg" xmlns:xlink="http://www.w3.org/1999/xlink" x="0px" y="0px"
	 width="250px" height="250px" viewBox="0 0 250 250" enable-background="new 0 0 250 250" xml:space="preserve">
<path d="M134.357,50.267c4.206,0.901,6.886,0.932,13.655,2.977c37.005,11.178,60.08,35.619,66.773,73.719
	c7.42,42.241-14.463,82.456-53.949,99.171c-34.376,14.552-66.888,9.494-95.872-14.157c-17.862-14.575-28.108-33.9-31.59-56.67
	c-5.664-37.035,12.645-74.545,45.255-93.085c10.536-5.99,21.785-9.847,33.831-11.364c1.212-0.153,3.249-0.518,3.391-1.134
	c0.436-1.888,0.2-3.951,0.041-5.931c-0.02-0.248-1.14-0.575-1.754-0.582c-4.305-0.052-8.611-0.004-12.916-0.037
	c-5.677-0.044-9.397-3.647-9.549-9.3c-0.083-3.073-0.038-6.15-0.007-9.225c0.054-5.358,3.535-8.853,9.038-8.894
	c9.148-0.069,18.298-0.029,27.447-0.03c6.458-0.001,12.916-0.031,19.374,0.021c5.46,0.044,8.389,2.953,8.488,8.406
	c0.062,3.458,0.102,6.923-0.034,10.377c-0.22,5.628-3.316,8.592-8.875,8.65c-3.613,0.038-7.227,0.056-10.84,0.003
	c-1.333-0.019-2.002,0.345-1.927,1.812C134.426,46.748,134.357,48.509,134.357,50.267z M124.292,212.95
	c38.986,0.094,70.785-31.492,70.93-70.458c0.148-39.574-31.4-71.334-70.918-71.395c-39.114-0.06-70.83,31.549-70.934,70.693
	C53.266,181.184,84.83,212.854,124.292,212.95z"/>
<path d="M74.846,99.918c0,0,31.629,31.161,38.837,38.503c0.739,0.753,1.274,2.056,1.288,3.112c0.074,5.511,4.283,9.913,9.708,9.923
	c5.416,0.01,9.645-4.195,9.667-9.612c0.021-5.486-4.225-9.605-9.826-9.749c-1.076-0.028-2.398-0.535-3.156-1.279
	c-7.398-7.261-22.297-22.193-29.631-29.52L74.846,99.918z"/>
<polygon points="39.129,83.649 56.471,64.141 48.544,52.235 32.636,73.988 "/>
<polygon points="211.153,83.649 193.811,64.141 201.739,52.235 217.646,73.988 "/>
</svg>
