<?xml version="1.0" encoding="utf-8"?>
<!-- Generator: Adobe Illustrator 17.0.0, SVG Export Plug-In . SVG Version: 6.00 Build 0)  -->
<!DOCTYPE svg PUBLIC "-//W3C//DTD SVG 1.1//EN" "http://www.w3.org/Graphics/SVG/1.1/DTD/svg11.dtd">
<svg version="1.1" id="Camada_1" xmlns="http://www.w3.org/2000/svg" xmlns:xlink="http://www.w3.org/1999/xlink" x="0px" y="0px"
	 width="250px" height="250px" viewBox="0 0 250 250" enable-background="new 0 0 250 250" xml:space="preserve">
<path d="M140.152,125.023c-0.001,25.972-0.013,51.943,0.015,77.915c0.004,3.22-0.989,5.832-3.769,7.638
	c-3.218,2.09-6.752,1.648-9.699-1.253c-13.001-12.796-26.003-25.593-39.002-38.392c-2.406-2.369-4.735-4.821-7.243-7.076
	c-0.773-0.695-2.015-1.21-3.049-1.221c-9.284-0.093-18.569-0.044-27.854-0.06c-8.851-0.015-15.065-6.238-15.07-15.086
	c-0.008-15.128-0.008-30.257,0-45.385c0.005-8.211,6.44-14.724,14.684-14.77c9.349-0.053,18.7-0.041,28.049,0.017
	c1.481,0.009,2.526-0.437,3.583-1.476c15.417-15.155,30.888-30.255,46.311-45.404c2.228-2.189,4.808-2.892,7.648-1.91
	c2.957,1.022,4.801,3.241,5.284,6.415c0.126,0.828,0.106,1.682,0.106,2.525C140.153,73.34,140.152,99.182,140.152,125.023z"/>
<path d="M215.524,126.785c-0.116,18.619-6.619,34.573-19.674,47.846c-3.363,3.419-7.758,4.196-11.523,2.059
	c-3.724-2.114-5.643-6.413-4.361-10.468c0.487-1.541,1.438-3.103,2.588-4.242c17.106-16.934,17.838-42.644,8.24-59.288
	c-2.212-3.835-4.942-7.528-8.077-10.637c-4.086-4.051-3.947-9.626-0.505-13.187c3.585-3.709,9.745-3.823,13.506-0.032
	c11.213,11.303,17.907,24.803,19.318,40.774C215.246,121.999,215.363,124.394,215.524,126.785z"/>
<path d="M185.874,126.694c-0.23,10.499-3.682,19.682-11.069,27.26c-3.676,3.771-9.115,3.926-12.905,0.42
	c-3.598-3.328-4.011-9.03-0.632-12.8c2.966-3.309,5.37-6.824,6.088-11.285c1.085-6.74-0.793-12.5-5.569-17.428
	c-4.634-4.782-3.458-12.175,2.269-15.196c3.126-1.649,7.095-1.252,9.619,1.133c7.072,6.685,11.19,14.826,11.903,24.603
	C185.658,124.5,185.774,125.596,185.874,126.694z"/>
</svg>
